<?xml version="1.0" encoding="UTF-8" standalone="no"?>
<!DOCTYPE svg PUBLIC "-//W3C//DTD SVG 1.1//EN" "http://www.w3.org/Graphics/SVG/1.1/DTD/svg11.dtd">
<svg width="100%" height="100%" viewBox="0 0 4100 4100" version="1.1" xmlns="http://www.w3.org/2000/svg" xmlns:xlink="http://www.w3.org/1999/xlink" xml:space="preserve" xmlns:serif="http://www.serif.com/" style="fill-rule:evenodd;clip-rule:evenodd;stroke-linejoin:round;stroke-miterlimit:2;">
    <g transform="matrix(1.09949,0,0,1.09949,-91.25771,-407.910968)">
        <circle cx="1947.5" cy="2235.5" r="1864.5" style="fill:rgb(90,99,227);"/>
    </g>
    <g transform="matrix(0.740333,0,0,0.740333,532.317073,532.317073)">
        <g transform="matrix(1.716901,0,-0,-1.149611,-1446.467968,1897.40784)">
            <path d="M2856,1329.5L1217,1329.5L1626.75,494L2446.25,494L2856,1329.5Z" style="fill:white;"/>
        </g>
        <g transform="matrix(1.716901,-0,-0,1.149611,-1446.467968,2202.59216)">
            <path d="M2856,1329.5L1217,1329.5L1626.75,494L2446.25,494L2856,1329.5Z" style="fill:white;"/>
        </g>
        <g transform="matrix(0,1.716901,-1.149611,-0,1897.40784,-1446.467968)">
            <path d="M2856,1329.5L1217,1329.5L1626.75,494L2446.25,494L2856,1329.5Z" style="fill:white;"/>
        </g>
        <g transform="matrix(0,-1.716901,1.149611,0,2202.59216,5546.467968)">
            <path d="M2856,1329.5L1217,1329.5L1626.75,494L2446.25,494L2856,1329.5Z" style="fill:white;"/>
        </g>
    </g>
</svg>
